<svg width="48" height="48" viewBox="0 0 48 48" fill="none" xmlns="http://www.w3.org/2000/svg">
<path fill-rule="evenodd" clip-rule="evenodd" d="M36.55 30.5952H40C41.6569 30.5952 43 31.9384 43 33.5952V33.7381C43 35.2894 41.8225 36.5657 40.3126 36.722L40.3111 36.7222C40.3015 36.7554 40.2915 36.7885 40.2811 36.8217L40.2803 36.8243L40.1171 37.3407L38.0583 43.8563L38.0489 43.8855C37.6669 45.053 36.6143 45.864 35.4 45.9456C35.333 45.9502 35.2656 45.9524 35.1977 45.9524H34.4V47.0001C34.4 47.5523 33.9523 48.0001 33.4 48.0001H31.1C30.5477 48.0001 30.1 47.5523 30.1 47.0001V45.9524H29.1H28.1H14.9L13.9 45.9524L12.9 45.9524V47.0001C12.9 47.5523 12.4523 48.0001 11.9 48.0001H9.60003C9.04774 48.0001 8.60003 47.5523 8.60003 47.0001V45.9524L7.60003 45.9456C6.37568 45.8633 5.31563 45.0394 4.94179 43.8563L2.88296 37.3407L2.71979 36.8243C2.70903 36.7903 2.69875 36.7562 2.68895 36.7222L2.68746 36.722C1.17748 36.5657 0 35.2894 0 33.7381V33.5952C0 31.9384 1.34315 30.5952 3 30.5952H34.55V10.375C34.55 8.51104 33.039 7 31.175 7C29.311 7 27.8 8.51104 27.8 10.375V12.246C29.9238 12.6143 31.6202 14.2292 32.1081 16.3095C32.2009 16.7052 32.25 17.1177 32.25 17.5417V18.3095H30.25H23.5H21.5V17.5417C21.5 17.1177 21.5491 16.7052 21.6419 16.3095C22.1183 14.2784 23.7466 12.691 25.8 12.2742V10.375C25.8 7.40647 28.2065 5 31.175 5C34.1435 5 36.55 7.40647 36.55 10.375V30.5952ZM7.60003 45.9456L7.80238 45.9524L7.79915 45.9524C7.73236 45.9524 7.66595 45.9501 7.60003 45.9456ZM23.732 16.3095C24.2242 15.055 25.4459 14.1667 26.875 14.1667C28.3041 14.1667 29.5258 15.055 30.018 16.3095H23.732ZM4.79002 36.7381L5.42198 38.7381L6.84885 43.2537C6.98028 43.6697 7.36617 43.9524 7.80238 43.9524H8.60003H9.60003H10.6H10.9H11.9H12.9H13.9H29.1H30.1H31.1H32.1H32.4H33.4H34.4H35.1977C35.6339 43.9524 36.0197 43.6697 36.1512 43.2538L36.1512 43.2537L37.5781 38.7381L38.21 36.7381H36.1126H6.88749H4.79002ZM40.1061 34.7327L40.0537 34.7381H38.21H4.79002H2.94633L2.89389 34.7327C2.39246 34.681 2 34.2541 2 33.7381V33.5952C2 33.043 2.44772 32.5952 3 32.5952H40C40.5523 32.5952 41 33.043 41 33.5952V33.7381C41 34.2541 40.6075 34.681 40.1061 34.7327ZM9.60003 46.0001L9.60003 45.9524L9.90003 45.9524L10.6 45.9524H10.9L11.6 45.9524L11.9 45.9524L11.9 46.0001V47.0001H11.6H10.9H10.6H9.90003H9.60003V46.0001ZM31.1 46.0001V45.9524L31.4 45.9524L32.1 45.9524H32.4H33.1H33.4L33.4 46.0001V47.0001H33.1H32.4H32.1H31.1V46.0001Z" fill="#152C5B"/>
</svg>
