<svg width="48" height="48" viewBox="0 0 48 48" fill="none" xmlns="http://www.w3.org/2000/svg">
<path d="M1 41.1917C1 39.3829 2.46627 37.9167 4.275 37.9167C6.08373 37.9167 7.55 39.3829 7.55 41.1917V47H1V41.1917Z" stroke="#152C5B" stroke-width="2"/>
<path d="M1 41.1917C1 39.3829 2.46627 37.9167 4.275 37.9167C6.08373 37.9167 7.55 39.3829 7.55 41.1917V47H1V41.1917Z" stroke="#152C5B" stroke-width="2"/>
<path d="M7.64999 41.9167C7.64999 39.7075 9.44086 37.9167 11.65 37.9167H26.35C28.5591 37.9167 30.35 39.7075 30.35 41.9167V46.2083H7.64999V41.9167Z" stroke="#152C5B" stroke-width="2"/>
<path d="M7.64999 41.9167C7.64999 39.7075 9.44086 37.9167 11.65 37.9167H26.35C28.5591 37.9167 30.35 39.7075 30.35 41.9167V46.2083H7.64999V41.9167Z" stroke="#152C5B" stroke-width="2"/>
<path fill-rule="evenodd" clip-rule="evenodd" d="M14.95 31H7.85001C6.19315 31 4.85001 32.3431 4.85001 34V38.0833H17.95V34C17.95 32.3431 16.6069 31 14.95 31ZM7.85001 29C5.08858 29 2.85001 31.2386 2.85001 34V38.0833V38.5061C2.93283 38.5021 3.01619 38.5 3.10003 38.5H34.2V38.0833V34C34.2 31.2386 31.9615 29 29.2 29H23.05C21.3842 29 19.9087 29.8146 19 31.0673C18.0914 29.8146 16.6158 29 14.95 29H7.85001ZM29.2 31H23.05C21.3932 31 20.05 32.3431 20.05 34V38.0833H32.2V34C32.2 32.3431 30.8569 31 29.2 31Z" fill="#152C5B"/>
<path fill-rule="evenodd" clip-rule="evenodd" d="M14.95 31H7.85001C6.19315 31 4.85001 32.3431 4.85001 34V38.0833H17.95V34C17.95 32.3431 16.6069 31 14.95 31ZM7.85001 29C5.08858 29 2.85001 31.2386 2.85001 34V38.0833V38.5061C2.93283 38.5021 3.01619 38.5 3.10003 38.5H34.2V38.0833V34C34.2 31.2386 31.9615 29 29.2 29H23.05C21.3842 29 19.9087 29.8146 19 31.0673C18.0914 29.8146 16.6158 29 14.95 29H7.85001ZM29.2 31H23.05C21.3932 31 20.05 32.3431 20.05 34V38.0833H32.2V34C32.2 32.3431 30.8569 31 29.2 31Z" fill="#152C5B"/>
<path d="M30.45 41.1917C30.45 39.3829 31.9163 37.9167 33.725 37.9167C35.5337 37.9167 37 39.3829 37 41.1917V47H30.45V41.1917Z" stroke="#152C5B" stroke-width="2"/>
<path d="M30.45 41.1917C30.45 39.3829 31.9163 37.9167 33.725 37.9167C35.5337 37.9167 37 39.3829 37 41.1917V47H30.45V41.1917Z" stroke="#152C5B" stroke-width="2"/>
<rect x="2" y="11" width="27" height="11" rx="1" stroke="#152C5B" stroke-width="2"/>
<line x1="2.66017" y1="21.7888" x2="10.383" y2="14.6332" stroke="#152C5B"/>
<line x1="9.97695" y1="14.9225" x2="17.3368" y2="21.6305" stroke="#152C5B"/>
<path fill-rule="evenodd" clip-rule="evenodd" d="M14.3873 18.8484L20.3776 13L19.7173 12.249L13.6479 18.1746L14.3873 18.8484Z" fill="#152C5B"/>
<line y1="-0.5" x2="12.391" y2="-0.5" transform="matrix(0.693294 0.720654 -0.683594 0.729862 19.2362 13.2003)" stroke="#152C5B"/>
</svg>
