<svg width="48" height="48" viewBox="0 0 48 48" fill="none" xmlns="http://www.w3.org/2000/svg">
<mask id="path-1-inside-1_55_1081" fill="white">
<path fill-rule="evenodd" clip-rule="evenodd" d="M3 9.83071C3 8.90548 3.63462 8.10103 4.53443 7.88565L20.5344 4.05586C21.7918 3.7549 23 4.70805 23 6.00092V45.9305C23 47.2233 21.7918 48.1765 20.5344 47.8755L10.4667 45.4657H2C0.89543 45.4657 0 44.5703 0 43.4657V8.4657C0 7.36113 0.895431 6.4657 2 6.4657H8.53846L4.59376 7.28401C3.93352 7.42098 3.4062 7.87424 3.15674 8.4657H2L2 43.4657H2.47073C2.7479 44.0915 3.33779 44.5532 4.05553 44.6416L10.1705 45.3948L4.53443 44.0457C3.63462 43.8304 3 43.0259 3 42.1007V9.83071ZM22 23.9657C22 25.3464 21.3284 26.4657 20.5 26.4657C19.6716 26.4657 19 25.3464 19 23.9657C19 22.585 19.6716 21.4657 20.5 21.4657C21.3284 21.4657 22 22.585 22 23.9657ZM27 45.4657H23.5V43.4657H27V8.4657H23.5V6.4657H27C28.1046 6.4657 29 7.36113 29 8.4657V43.4657C29 44.5703 28.1046 45.4657 27 45.4657Z"/>
</mask>
<path fill-rule="evenodd" clip-rule="evenodd" d="M3 9.83071C3 8.90548 3.63462 8.10103 4.53443 7.88565L20.5344 4.05586C21.7918 3.7549 23 4.70805 23 6.00092V45.9305C23 47.2233 21.7918 48.1765 20.5344 47.8755L10.4667 45.4657H2C0.89543 45.4657 0 44.5703 0 43.4657V8.4657C0 7.36113 0.895431 6.4657 2 6.4657H8.53846L4.59376 7.28401C3.93352 7.42098 3.4062 7.87424 3.15674 8.4657H2L2 43.4657H2.47073C2.7479 44.0915 3.33779 44.5532 4.05553 44.6416L10.1705 45.3948L4.53443 44.0457C3.63462 43.8304 3 43.0259 3 42.1007V9.83071ZM22 23.9657C22 25.3464 21.3284 26.4657 20.5 26.4657C19.6716 26.4657 19 25.3464 19 23.9657C19 22.585 19.6716 21.4657 20.5 21.4657C21.3284 21.4657 22 22.585 22 23.9657ZM27 45.4657H23.5V43.4657H27V8.4657H23.5V6.4657H27C28.1046 6.4657 29 7.36113 29 8.4657V43.4657C29 44.5703 28.1046 45.4657 27 45.4657Z" fill="#152C5B"/>
<path d="M4.53443 7.88565L4.06886 5.94059L4.06886 5.94059L4.53443 7.88565ZM20.5344 4.05586L21 6.00092L20.5344 4.05586ZM20.5344 47.8755L21 45.9305H21L20.5344 47.8755ZM10.4667 45.4657L10.9322 43.5206L10.7027 43.4657H10.4667V45.4657ZM8.53846 6.4657L8.94471 8.42401L8.53846 4.4657V6.4657ZM4.59376 7.28401L5 9.24232L4.59376 7.28401ZM3.15674 8.4657V10.4657H4.4838L4.99953 9.24294L3.15674 8.4657ZM2 8.4657V6.4657H4.08718e-08L0 8.4657H2ZM2 43.4657H-7.15256e-07L-7.56128e-07 45.4657H2V43.4657ZM2.47073 43.4657L4.2994 42.6558L3.77232 41.4657H2.47073V43.4657ZM4.05553 44.6416L3.81102 46.6266H3.81102L4.05553 44.6416ZM10.1705 45.3948L9.92596 47.3798L10.636 43.4497L10.1705 45.3948ZM4.53443 44.0457L4.06885 45.9908L4.06886 45.9908L4.53443 44.0457ZM23.5 45.4657H21.5V47.4657H23.5V45.4657ZM23.5 43.4657V41.4657H21.5V43.4657H23.5ZM27 43.4657V45.4657H29V43.4657H27ZM27 8.4657H29V6.4657H27V8.4657ZM23.5 8.4657H21.5V10.4657H23.5V8.4657ZM23.5 6.4657V4.4657H21.5V6.4657H23.5ZM4.06886 5.94059C2.26924 6.37135 1 7.98026 1 9.83071H5L5 9.8307L4.06886 5.94059ZM20.0689 2.11081L4.06886 5.94059L5 9.8307L21 6.00092L20.0689 2.11081ZM25 6.00092C25 3.41518 22.5836 1.50888 20.0689 2.11081L21 6.00092V6.00092H25ZM25 45.9305V6.00092H21V45.9305H25ZM20.0689 49.8206C22.5836 50.4225 25 48.5162 25 45.9305H21H21L20.0689 49.8206ZM10.0011 47.4108L20.0689 49.8206L21 45.9305L10.9322 43.5206L10.0011 47.4108ZM10.4667 43.4657H2V47.4657H10.4667V43.4657ZM2 43.4657H2H-2C-2 45.6748 -0.209141 47.4657 2 47.4657V43.4657ZM2 43.4657V8.4657H-2V43.4657H2ZM2 8.4657V8.4657V4.4657C-0.209139 4.4657 -2 6.25656 -2 8.4657H2ZM2 8.4657H8.53846V4.4657H2V8.4657ZM8.13222 4.50739L4.18751 5.32571L5 9.24232L8.94471 8.42401L8.13222 4.50739ZM4.18751 5.32571C2.86569 5.59992 1.81186 6.50792 1.31394 7.68845L4.99953 9.24294L5 9.24232L4.18751 5.32571ZM3.15674 6.4657H2V10.4657H3.15674V6.4657ZM0 8.4657L-7.15256e-07 43.4657H4L4 8.4657L0 8.4657ZM2 45.4657H2.47073V41.4657H2V45.4657ZM0.642052 44.2756C1.195 45.5241 2.37364 46.4495 3.81102 46.6266L4.30005 42.6566C4.29784 42.6563 4.29805 42.6561 4.29941 42.6567C4.30049 42.6571 4.30101 42.6575 4.30096 42.6574C4.30078 42.6573 4.30028 42.6569 4.29975 42.6562C4.29925 42.6556 4.2992 42.6553 4.2994 42.6558L0.642052 44.2756ZM3.81102 46.6266L9.92596 47.3798L10.415 43.4098L4.30005 42.6566L3.81102 46.6266ZM4.06886 45.9908L9.7049 47.3399L10.636 43.4497L5 42.1007L4.06886 45.9908ZM1 42.1007C1 43.9511 2.26924 45.56 4.06885 45.9908L5 42.1007H5H1ZM1 9.83071V42.1007H5V9.83071H1ZM20.5 28.4657C21.8927 28.4657 22.8119 27.5353 23.2756 26.7625C23.7632 25.9498 24 24.9562 24 23.9657H20C20 24.3559 19.901 24.6123 19.8457 24.7045C19.8202 24.7469 19.8361 24.7019 19.9315 24.6346C20.0381 24.5595 20.236 24.4657 20.5 24.4657V28.4657ZM17 23.9657C17 24.9562 17.2368 25.9498 17.7244 26.7625C18.1881 27.5353 19.1073 28.4657 20.5 28.4657V24.4657C20.764 24.4657 20.9619 24.5595 21.0685 24.6346C21.1639 24.7019 21.1798 24.7469 21.1543 24.7045C21.099 24.6123 21 24.3559 21 23.9657H17ZM20.5 19.4657C19.1073 19.4657 18.1881 20.3961 17.7244 21.1689C17.2368 21.9816 17 22.9752 17 23.9657H21C21 23.5755 21.099 23.3191 21.1543 23.2269C21.1798 23.1845 21.1639 23.2295 21.0685 23.2968C20.9619 23.3719 20.764 23.4657 20.5 23.4657V19.4657ZM24 23.9657C24 22.9752 23.7632 21.9816 23.2756 21.1689C22.8119 20.3961 21.8927 19.4657 20.5 19.4657V23.4657C20.236 23.4657 20.0381 23.3719 19.9315 23.2968C19.8361 23.2295 19.8202 23.1845 19.8457 23.2269C19.901 23.3191 20 23.5755 20 23.9657H24ZM23.5 47.4657H27V43.4657H23.5V47.4657ZM21.5 43.4657V45.4657H25.5V43.4657H21.5ZM27 41.4657H23.5V45.4657H27V41.4657ZM25 8.4657V43.4657H29V8.4657H25ZM23.5 10.4657H27V6.4657H23.5V10.4657ZM21.5 6.4657V8.4657H25.5V6.4657H21.5ZM27 4.4657H23.5V8.4657H27V4.4657ZM31 8.4657C31 6.25656 29.2091 4.4657 27 4.4657V8.4657V8.4657H31ZM31 43.4657V8.4657H27V43.4657H31ZM27 47.4657C29.2091 47.4657 31 45.6748 31 43.4657H27V47.4657Z" fill="#152C5B" mask="url(#path-1-inside-1_55_1081)"/>
</svg>
