<svg width="48" height="48" viewBox="0 0 48 48" fill="none" xmlns="http://www.w3.org/2000/svg">
<path fill-rule="evenodd" clip-rule="evenodd" d="M3 6H31C31.5523 6 32 6.44772 32 7V22H2V7C2 6.44772 2.44772 6 3 6ZM2 24V42C2 42.5523 2.44772 43 3 43H7.5H10.5H24.5H27.5H31C31.5523 43 32 42.5523 32 42V24H2ZM31 45H29.95C29.9828 45.1616 30 45.3288 30 45.5C30 46.8807 28.8807 48 27.5 48H24.5C23.1193 48 22 46.8807 22 45.5C22 45.3288 22.0172 45.1616 22.05 45H12.95C12.9828 45.1616 13 45.3288 13 45.5C13 46.8807 11.8807 48 10.5 48H7.5C6.11929 48 5 46.8807 5 45.5C5 45.3288 5.01722 45.1616 5.05001 45H3C1.34315 45 0 43.6569 0 42V7C0 5.34315 1.34315 4 3 4H31C32.6569 4 34 5.34315 34 7V42C34 43.6569 32.6569 45 31 45ZM4 12.5C4 11.6716 4.67157 11 5.5 11C6.32843 11 7 11.6716 7 12.5V15.5C7 16.3284 6.32843 17 5.5 17C4.67157 17 4 16.3284 4 15.5V12.5ZM5.5 27C4.67157 27 4 27.6716 4 28.5V31.5C4 32.3284 4.67157 33 5.5 33C6.32843 33 7 32.3284 7 31.5V28.5C7 27.6716 6.32843 27 5.5 27Z" fill="#152C5B"/>
<path fill-rule="evenodd" clip-rule="evenodd" d="M3 6H31C31.5523 6 32 6.44772 32 7V22H2V7C2 6.44772 2.44772 6 3 6ZM2 24V42C2 42.5523 2.44772 43 3 43H7.5H10.5H24.5H27.5H31C31.5523 43 32 42.5523 32 42V24H2ZM31 45H29.95C29.9828 45.1616 30 45.3288 30 45.5C30 46.8807 28.8807 48 27.5 48H24.5C23.1193 48 22 46.8807 22 45.5C22 45.3288 22.0172 45.1616 22.05 45H12.95C12.9828 45.1616 13 45.3288 13 45.5C13 46.8807 11.8807 48 10.5 48H7.5C6.11929 48 5 46.8807 5 45.5C5 45.3288 5.01722 45.1616 5.05001 45H3C1.34315 45 0 43.6569 0 42V7C0 5.34315 1.34315 4 3 4H31C32.6569 4 34 5.34315 34 7V42C34 43.6569 32.6569 45 31 45ZM4 12.5C4 11.6716 4.67157 11 5.5 11C6.32843 11 7 11.6716 7 12.5V15.5C7 16.3284 6.32843 17 5.5 17C4.67157 17 4 16.3284 4 15.5V12.5ZM5.5 27C4.67157 27 4 27.6716 4 28.5V31.5C4 32.3284 4.67157 33 5.5 33C6.32843 33 7 32.3284 7 31.5V28.5C7 27.6716 6.32843 27 5.5 27Z" fill="#152C5B"/>
<path fill-rule="evenodd" clip-rule="evenodd" d="M3 6H31C31.5523 6 32 6.44772 32 7V22H2V7C2 6.44772 2.44772 6 3 6ZM2 24V42C2 42.5523 2.44772 43 3 43H7.5H10.5H24.5H27.5H31C31.5523 43 32 42.5523 32 42V24H2ZM31 45H29.95C29.9828 45.1616 30 45.3288 30 45.5C30 46.8807 28.8807 48 27.5 48H24.5C23.1193 48 22 46.8807 22 45.5C22 45.3288 22.0172 45.1616 22.05 45H12.95C12.9828 45.1616 13 45.3288 13 45.5C13 46.8807 11.8807 48 10.5 48H7.5C6.11929 48 5 46.8807 5 45.5C5 45.3288 5.01722 45.1616 5.05001 45H3C1.34315 45 0 43.6569 0 42V7C0 5.34315 1.34315 4 3 4H31C32.6569 4 34 5.34315 34 7V42C34 43.6569 32.6569 45 31 45ZM4 12.5C4 11.6716 4.67157 11 5.5 11C6.32843 11 7 11.6716 7 12.5V15.5C7 16.3284 6.32843 17 5.5 17C4.67157 17 4 16.3284 4 15.5V12.5ZM5.5 27C4.67157 27 4 27.6716 4 28.5V31.5C4 32.3284 4.67157 33 5.5 33C6.32843 33 7 32.3284 7 31.5V28.5C7 27.6716 6.32843 27 5.5 27Z" fill="#152C5B"/>
</svg>
