<svg width="48" height="48" viewBox="0 0 48 48" fill="none" xmlns="http://www.w3.org/2000/svg">
<path fill-rule="evenodd" clip-rule="evenodd" d="M2 16H37V40H19H2L2 16ZM21 42H37C38.1046 42 39 41.1046 39 40V16C39 14.8954 38.1046 14 37 14H2C0.895431 14 0 14.8954 0 16V40C0 41.1046 0.89543 42 2 42H17V45C17 46.1046 17.8954 47 19 47C20.1046 47 21 46.1046 21 45V42Z" fill="#152C5B"/>
<path d="M9.26756 47C9.61337 46.4022 10.2597 46 11 46H27C27.7403 46 28.3866 46.4022 28.7324 47H9.26756Z" stroke="#152C5B" stroke-width="1.5"/>
<line x1="3.1" y1="19.3" x2="6.3" y2="16.9" stroke="#152C5B" stroke-linecap="round"/>
<line x1="3.1" y1="19.3" x2="6.3" y2="16.9" stroke="#152C5B" stroke-linecap="round"/>
<line x1="3.1" y1="19.3" x2="6.3" y2="16.9" stroke="#152C5B" stroke-linecap="round"/>
<line x1="3.1" y1="19.3" x2="6.3" y2="16.9" stroke="#152C5B" stroke-linecap="round"/>
<line x1="3.04704" y1="24.2945" x2="10.2945" y2="17.953" stroke="#152C5B" stroke-linecap="round"/>
<line x1="3.04704" y1="24.2945" x2="10.2945" y2="17.953" stroke="#152C5B" stroke-linecap="round"/>
<line x1="3.04704" y1="24.2945" x2="10.2945" y2="17.953" stroke="#152C5B" stroke-linecap="round"/>
<line x1="3.04704" y1="24.2945" x2="10.2945" y2="17.953" stroke="#152C5B" stroke-linecap="round"/>
<line x1="24.0307" y1="38.2936" x2="35.2936" y2="27.9693" stroke="#152C5B" stroke-linecap="round"/>
<line x1="24.0307" y1="38.2936" x2="35.2936" y2="27.9693" stroke="#152C5B" stroke-linecap="round"/>
<line x1="24.0307" y1="38.2936" x2="35.2936" y2="27.9693" stroke="#152C5B" stroke-linecap="round"/>
<line x1="24.0307" y1="38.2936" x2="35.2936" y2="27.9693" stroke="#152C5B" stroke-linecap="round"/>
</svg>
