<svg width="48" height="48" viewBox="0 0 48 48" fill="none" xmlns="http://www.w3.org/2000/svg">
<path d="M34 28.9429V43C34 45.2091 32.2091 47 30 47H5C2.79086 47 1 45.2091 1 43V28.9429C1 26.3367 3.00189 24.1675 5.59974 23.9589L17.0997 23.0354C17.3662 23.014 17.6338 23.014 17.9003 23.0354L29.4003 23.9589C31.9981 24.1675 34 26.3367 34 28.9429Z" stroke="#152C5B" stroke-width="2"/>
<path d="M0 20.782C0 20.0246 0.604301 19.4056 1.36142 19.3875L17.5 19L33.6386 19.3875C34.3957 19.4056 35 20.0246 35 20.782V20.782C35 21.4453 34.4459 21.9741 33.7833 21.9431L17.5 21.1818L1.21671 21.9431C0.554133 21.9741 0 21.4453 0 20.782V20.782Z" fill="#152C5B"/>
<path fill-rule="evenodd" clip-rule="evenodd" d="M22 12H28C28.5523 12 29 12.4477 29 13V18.2487L31 18.2919V13C31 11.3431 29.6569 10 28 10H22C20.3431 10 19 11.3431 19 13V18.0325L21 18.0757V13C21 12.4477 21.4477 12 22 12Z" fill="#152C5B"/>
<path fill-rule="evenodd" clip-rule="evenodd" d="M7 12H13C13.5523 12 14 12.4477 14 13V18.0757L16 18.0325V13C16 11.3431 14.6569 10 13 10H7C5.34315 10 4 11.3431 4 13V18.2919L6 18.2487V13C6 12.4477 6.44772 12 7 12Z" fill="#152C5B"/>
<path fill-rule="evenodd" clip-rule="evenodd" d="M2 16.4155C0.832724 16.8315 0 17.9463 0 19.2528V17.5V8.45729C0 7.40468 0.81589 6.53223 1.86614 6.46177L8.75 6H17.5H26.25L33.1339 6.46177C34.1841 6.53223 35 7.40468 35 8.45729V17.5V19.2528C35 17.9464 34.1673 16.8315 33 16.4155V8.45729L26.183 8H17.5H8.81701L2 8.45729V16.4155ZM34.988 19.5C34.9959 19.4187 35 19.3362 35 19.2528V19.5H34.988ZM0.0120055 19.5H0V19.2528C0 19.3362 0.00406506 19.4187 0.0120055 19.5Z" fill="#152C5B"/>
</svg>
