<svg width="48" height="48" viewBox="0 0 48 48" fill="none" xmlns="http://www.w3.org/2000/svg">
<path d="M12.0051 31.7747L12.242 30.8031L12.0052 31.7747L12.167 31.8141C13.4453 32.1258 14.4444 33.1222 14.7596 34.3997C15.3088 36.6263 13.6236 38.7778 11.3303 38.7778H7.51811C3.91826 38.7778 1 35.8595 1 32.2597V25.8249V16.0701C1 14.4812 2.67073 13.4466 4.09316 14.1547C4.76636 14.4898 5.21421 15.1537 5.27278 15.9035L5.64031 20.6082L5.35083 26.7842C5.20848 29.8213 7.89755 32.2193 10.8985 31.7315C11.2666 31.6716 11.6429 31.6863 12.0051 31.7747Z" stroke="#152C5B" stroke-width="2"/>
<path d="M33.9949 31.7747L33.758 30.8031L33.9948 31.7747L33.833 31.8141C32.5547 32.1258 31.5556 33.1222 31.2404 34.3997C30.6912 36.6263 32.3764 38.7778 34.6697 38.7778H38.4819C42.0817 38.7778 45 35.8595 45 32.2597V25.8249V16.0701C45 14.4812 43.3293 13.4466 41.9068 14.1547C41.2336 14.4898 40.7858 15.1537 40.7272 15.9035L40.3597 20.6082L40.6492 26.7842C40.7915 29.8213 38.1025 32.2193 35.1015 31.7315C34.7334 31.6716 34.3571 31.6863 33.9949 31.7747Z" stroke="#152C5B" stroke-width="2"/>
<path fill-rule="evenodd" clip-rule="evenodd" d="M22.3256 27H23.6744V43.9218H25.6744V27C25.6744 25.8954 24.779 25 23.6744 25H22.3256C21.221 25 20.3256 25.8954 20.3256 27V43.9218H22.3256V27L22.3256 27ZM24.8269 45.9218C24.5011 46.1519 24.1035 46.2871 23.6744 46.2871H22.3256C21.8964 46.2871 21.4988 46.1519 21.1731 45.9218H24.8269Z" fill="#152C5B"/>
<path d="M18.1163 46.1481C18.1163 43.939 19.9071 42.1481 22.1163 42.1481H23.8837C26.0929 42.1481 27.8837 43.939 27.8837 46.1481V47H18.1163V46.1481Z" stroke="#152C5B" stroke-width="2"/>
<path d="M14 22C14 21.4477 14.4477 21 15 21H32.3953C32.9476 21 33.3953 21.4477 33.3953 22V24.8519C33.3953 25.4041 32.9476 25.8519 32.3953 25.8519H15C14.4477 25.8519 14 25.4041 14 24.8519V22Z" stroke="#152C5B" stroke-width="2"/>
<line x1="11.6977" y1="38.4074" x2="11.6977" y2="48" stroke="#152C5B" stroke-width="2"/>
<line x1="34.1628" y1="38.4074" x2="34.1628" y2="48" stroke="#152C5B" stroke-width="2"/>
<line x1="5.27907" y1="38.4074" x2="5.27907" y2="48" stroke="#152C5B" stroke-width="2"/>
<path d="M40.6512 38.4074V48" stroke="#152C5B" stroke-width="2"/>
</svg>
