<svg width="48" height="48" viewBox="0 0 48 48" fill="none" xmlns="http://www.w3.org/2000/svg">
<path fill-rule="evenodd" clip-rule="evenodd" d="M10 28H11.5086L11.923 26.5494L13.5086 21H29.4914L31.077 26.5494L31.4914 28H33H40V46H2V28H10ZM31 19H12L10 26H9V24C9 23.4477 8.55228 23 8 23H4C3.44772 23 3 23.4477 3 24V26H2C0.895431 26 0 26.8954 0 28V46C0 47.1046 0.89543 48 2 48H40C41.1046 48 42 47.1046 42 46V28C42 26.8954 41.1046 26 40 26H33L31 19ZM21 43C24.3137 43 27 40.3137 27 37C27 33.6863 24.3137 31 21 31C17.6863 31 15 33.6863 15 37C15 40.3137 17.6863 43 21 43ZM21 45C25.4183 45 29 41.4183 29 37C29 32.5817 25.4183 29 21 29C16.5817 29 13 32.5817 13 37C13 41.4183 16.5817 45 21 45ZM31.5 29C30.6716 29 30 29.6716 30 30.5C30 31.3284 30.6716 32 31.5 32H37.5C38.3284 32 39 31.3284 39 30.5C39 29.6716 38.3284 29 37.5 29H31.5Z" fill="#152C5B"/>
</svg>
