<svg width="48" height="48" viewBox="0 0 48 48" fill="none" xmlns="http://www.w3.org/2000/svg">
<rect x="1" y="9.86967" width="43" height="37.1304" rx="2" stroke="#152C5B" stroke-width="2"/>
<rect x="1" y="9.86967" width="43" height="37.1304" rx="2" stroke="white" stroke-width="2"/>
<rect x="1" y="9.86967" width="43" height="37.1304" rx="2" stroke="#152C5B" stroke-width="2"/>
<line x1="10.7826" y1="4" x2="10.7826" y2="15.6957" stroke="#152C5B" stroke-width="2" stroke-linecap="round"/>
<line x1="10.7826" y1="4" x2="10.7826" y2="15.6957" stroke="white" stroke-width="2" stroke-linecap="round"/>
<line x1="10.7826" y1="4" x2="10.7826" y2="15.6957" stroke="#152C5B" stroke-width="2" stroke-linecap="round"/>
<line x1="1" y1="23.5218" x2="44" y2="23.5218" stroke="#152C5B" stroke-width="2" stroke-linecap="round"/>
<line x1="1" y1="23.5218" x2="44" y2="23.5218" stroke="white" stroke-width="2" stroke-linecap="round"/>
<line x1="1" y1="23.5218" x2="44" y2="23.5218" stroke="#152C5B" stroke-width="2" stroke-linecap="round"/>
<line x1="32.3044" y1="4" x2="32.3044" y2="15.6957" stroke="#152C5B" stroke-width="2" stroke-linecap="round"/>
<line x1="32.3044" y1="4" x2="32.3044" y2="15.6957" stroke="white" stroke-width="2" stroke-linecap="round"/>
<line x1="32.3044" y1="4" x2="32.3044" y2="15.6957" stroke="#152C5B" stroke-width="2" stroke-linecap="round"/>
<rect x="8" y="27.875" width="6.5" height="6.5" rx="0.5" stroke="#152C5B"/>
<rect x="8" y="27.875" width="6.5" height="6.5" rx="0.5" stroke="white"/>
<rect x="8" y="27.875" width="6.5" height="6.5" rx="0.5" stroke="#152C5B"/>
<rect x="30.5" y="27.875" width="6.5" height="6.5" rx="0.5" stroke="#152C5B"/>
<rect x="30.5" y="27.875" width="6.5" height="6.5" rx="0.5" stroke="white"/>
<rect x="30.5" y="27.875" width="6.5" height="6.5" rx="0.5" stroke="#152C5B"/>
<rect x="19.25" y="27.875" width="6.5" height="6.5" rx="0.5" stroke="#152C5B"/>
<rect x="19.25" y="27.875" width="6.5" height="6.5" rx="0.5" stroke="white"/>
<rect x="19.25" y="27.875" width="6.5" height="6.5" rx="0.5" stroke="#152C5B"/>
</svg>
