<svg width="48" height="48" viewBox="0 0 48 48" fill="none" xmlns="http://www.w3.org/2000/svg">
<path fill-rule="evenodd" clip-rule="evenodd" d="M29 18H11V36H13H15V38V41V46H25V41V38V36H27H29V18ZM13 38H10C9.44772 38 9 37.5523 9 37V18C9 16.8954 9.89543 16 11 16H29C30.1046 16 31 16.8954 31 18V37C31 37.5523 30.5523 38 30 38H27V46C27 47.1046 26.1046 48 25 48H15C13.8954 48 13 47.1046 13 46V38Z" fill="#152C5B"/>
<circle cx="20" cy="9" r="5" stroke="#152C5B" stroke-width="2"/>
<path fill-rule="evenodd" clip-rule="evenodd" d="M32 47C32 47.5523 32.4477 48 33 48H35.0909C36.1955 48 37.0909 47.1046 37.0909 46V39C37.0909 38.4477 37.5386 38 38.0909 38H39C39.5523 38 40 37.5523 40 37V18C40 16.8954 39.1046 16 38 16H33C32.4477 16 32 16.4477 32 17C32 17.5523 32.4477 18 33 18H37C37.5523 18 38 18.4477 38 19V35.0909C38 35.593 37.593 36 37.0909 36H36.6363C36.0841 36 35.6363 36.4477 35.6363 37V41C35.6363 41.3888 35.5254 41.7516 35.3335 42.0587C35.1982 42.2751 35.0909 42.5149 35.0909 42.7701V45C35.0909 45.5523 34.6432 46 34.0909 46H33C32.4477 46 32 46.4477 32 47Z" fill="#FF4B07"/>
<path fill-rule="evenodd" clip-rule="evenodd" d="M8 47C8 47.5523 7.55229 48 7 48H4.90909C3.80452 48 2.90909 47.1046 2.90909 46V39C2.90909 38.4477 2.46138 38 1.90909 38H1C0.447715 38 0 37.5523 0 37V18C0 16.8954 0.895431 16 2 16H7C7.55228 16 8 16.4477 8 17C8 17.5523 7.55228 18 7 18H3C2.44772 18 2 18.4477 2 19V35.0909C2 35.593 2.40701 36 2.90909 36H3.36366C3.91595 36 4.36366 36.4477 4.36366 37V41C4.36366 41.3888 4.47459 41.7516 4.66651 42.0587C4.80181 42.2751 4.90909 42.5149 4.90909 42.7701V45C4.90909 45.5523 5.35681 46 5.90909 46H7C7.55228 46 8 46.4477 8 47Z" fill="#FF4B07"/>
<path fill-rule="evenodd" clip-rule="evenodd" d="M27 15C30.3137 15 33 12.3137 33 9C33 5.68629 30.3137 3 27 3V5C29.2091 5 31 6.79086 31 9C31 11.2091 29.2091 13 27 13V15Z" fill="#FF4B07"/>
<path fill-rule="evenodd" clip-rule="evenodd" d="M13 15C9.68629 15 7 12.3137 7 9C7 5.68629 9.68629 3 13 3V5C10.7909 5 9 6.79086 9 9C9 11.2091 10.7909 13 13 13V15Z" fill="#FF4B07"/>
</svg>
