<svg width="40" height="39" viewBox="0 0 40 39" fill="none" xmlns="http://www.w3.org/2000/svg">
<path d="M19.0489 1.19902C19.3483 0.277714 20.6517 0.277713 20.9511 1.19902L24.9393 13.4736C25.0732 13.8856 25.4571 14.1646 25.8904 14.1646H38.7966C39.7653 14.1646 40.1681 15.4042 39.3844 15.9736L28.943 23.5597C28.5925 23.8143 28.4459 24.2657 28.5798 24.6777L32.568 36.9523C32.8674 37.8736 31.8129 38.6397 31.0292 38.0703L20.5878 30.4842C20.2373 30.2296 19.7627 30.2296 19.4122 30.4842L8.97084 38.0703C8.18713 38.6397 7.13264 37.8736 7.432 36.9523L11.4202 24.6777C11.5541 24.2657 11.4075 23.8143 11.057 23.5597L0.6156 15.9736C-0.168114 15.4042 0.23466 14.1646 1.20338 14.1646H14.1096C14.5429 14.1646 14.9268 13.8856 15.0607 13.4736L19.0489 1.19902Z" fill="#FF4B07"/>
</svg>
