<svg width="48" height="48" viewBox="0 0 48 48" fill="none" xmlns="http://www.w3.org/2000/svg">
<path fill-rule="evenodd" clip-rule="evenodd" d="M21 19.65V45.65V47.65H23H39H41V45.65V19.15L27 16V18.05L39 20.75V45.65H23V19.65H21Z" fill="#152C5B"/>
<rect x="26" y="39" width="4" height="4" fill="#FF4B07"/>
<rect x="26" y="33" width="4" height="4" fill="#FF4B07"/>
<rect x="26" y="27" width="4" height="4" fill="#FF4B07"/>
<rect x="33" y="39" width="4" height="4" fill="#FF4B07"/>
<rect x="33" y="33" width="4" height="4" fill="#FF4B07"/>
<rect x="33" y="27" width="4" height="4" fill="#FF4B07"/>
<path d="M1 47V10.2566L22 4.32178V47H1Z" stroke="#152C5B" stroke-width="2"/>
<rect x="4" y="40" width="15" height="4" fill="#152C5B"/>
<rect x="4" y="30" width="4" height="4" fill="#FF4B07"/>
<rect x="4" y="24" width="4" height="4" fill="#FF4B07"/>
<rect x="4" y="18" width="4" height="4" fill="#FF4B07"/>
<rect x="15" y="30" width="4" height="4" fill="#FF4B07"/>
<rect x="15" y="24" width="4" height="4" fill="#FF4B07"/>
<rect x="15" y="18" width="4" height="4" fill="#FF4B07"/>
<rect x="10" y="30" width="3" height="4" fill="#FF4B07"/>
<rect x="10" y="24" width="3" height="4" fill="#FF4B07"/>
<rect x="10" y="18" width="3" height="4" fill="#FF4B07"/>
</svg>
